HIERARCHY
ROOT Hips
{
  OFFSET -289.539 73.8295 721.986
  CHANNELS 6 Xposition Yposition Zposition Zrotation Xrotation Yrotation
  JOINT Spine
  {
    OFFSET 0 8 -1.18637e-05
    CHANNELS 6 Xposition Yposition Zposition Zrotation Xrotation Yrotation
    JOINT Spine1
    {
      OFFSET 0 8 0
      CHANNELS 6 Xposition Yposition Zposition Zrotation Xrotation Yrotation
      JOINT Spine2
      {
        OFFSET -2.29531e-05 8.00001 2.06593e-05
        CHANNELS 6 Xposition Yposition Zposition Zrotation Xrotation Yrotation
        JOINT Spine3
        {
          OFFSET 0 8 0
          CHANNELS 6 Xposition Yposition Zposition Zrotation Xrotation Yrotation
          JOINT Neck
          {
            OFFSET 1.38755e-05 17.0002 2.22736e-05
            CHANNELS 6 Xposition Yposition Zposition Zrotation Xrotation Yrotation
            JOINT Head
            {
              OFFSET 5.57307e-05 10.7998 0
              CHANNELS 6 Xposition Yposition Zposition Zrotation Xrotation Yrotation
              End Site
              {
                OFFSET 0 20.25 0
              }
            }
          }
          JOINT LeftShoulder
          {
            OFFSET 4.99994 17 2.82665e-05
            CHANNELS 6 Xposition Yposition Zposition Zrotation Xrotation Yrotation
            JOINT LeftShoulder2
            {
              OFFSET 6.45 0 0
              CHANNELS 6 Xposition Yposition Zposition Zrotation Xrotation Yrotation
              JOINT LeftArm
              {
                OFFSET 6.45001 0 -0.000223025
                CHANNELS 6 Xposition Yposition Zposition Zrotation Xrotation Yrotation
                JOINT LeftForeArm
                {
                  OFFSET -1.4548e-05 -32.4 -1.99574
                  CHANNELS 6 Xposition Yposition Zposition Zrotation Xrotation Yrotation
                  JOINT LeftHand
                  {
                    OFFSET -2.28427e-05 -25.65 2
                    CHANNELS 6 Xposition Yposition Zposition Zrotation Xrotation Yrotation
                    JOINT LeftHandThumb1
                    {
                      OFFSET -0.499989 -1.50002 2.64999
                      CHANNELS 6 Xposition Yposition Zposition Zrotation Xrotation Yrotation
                      JOINT LeftHandThumb2
                      {
                        OFFSET -1.66337e-05 -3.79999 3.70005
                        CHANNELS 6 Xposition Yposition Zposition Zrotation Xrotation Yrotation
                        JOINT LeftHandThumb3
                        {
                          OFFSET 0 -3.00001 2.69996
                          CHANNELS 6 Xposition Yposition Zposition Zrotation Xrotation Yrotation
                          End Site
                          {
                            OFFSET 0 -2.29997 1.79998
                          }
                        }
                      }
                    }
                    JOINT LeftHandIndex
                    {
                      OFFSET 3.32859e-05 -1.90011 1.59999
                      CHANNELS 6 Xposition Yposition Zposition Zrotation Xrotation Yrotation
                      JOINT LeftHandIndex1
                      {
                        OFFSET -1.75155e-05 -8.29995 1.90002
                        CHANNELS 6 Xposition Yposition Zposition Zrotation Xrotation Yrotation
                        JOINT LeftHandIndex2
                        {
                          OFFSET 0 -4.49994 -1.99511e-05
                          CHANNELS 6 Xposition Yposition Zposition Zrotation Xrotation Yrotation
                          JOINT LeftHandIndex3
                          {
                            OFFSET -3.72682e-05 -3.42146 0
                            CHANNELS 6 Xposition Yposition Zposition Zrotation Xrotation Yrotation
                            End Site
                            {
                              OFFSET 0 -2.59991 2.62355e-05
                            }
                          }
                        }
                      }
                    }
                    JOINT LeftHandMiddle
                    {
                      OFFSET -0.250004 -2.20006 0.399997
                      CHANNELS 6 Xposition Yposition Zposition Zrotation Xrotation Yrotation
                      JOINT LeftHandMiddle1
                      {
                        OFFSET 0 -8.29991 0.999999
                        CHANNELS 6 Xposition Yposition Zposition Zrotation Xrotation Yrotation
                        JOINT LeftHandMiddle2
                        {
                          OFFSET 0 -4.64999 0
                          CHANNELS 6 Xposition Yposition Zposition Zrotation Xrotation Yrotation
                          JOINT LeftHandMiddle3
                          {
                            OFFSET -2.10671e-05 -3.30002 1.78694e-05
                            CHANNELS 6 Xposition Yposition Zposition Zrotation Xrotation Yrotation
                            End Site
                            {
                              OFFSET -6.33299e-05 -2.70003 -1.78106e-05
                            }
                          }
                        }
                      }
                    }
                    JOINT LeftHandRing
                    {
                      OFFSET -0.500005 -2.15006 -0.800021
                      CHANNELS 6 Xposition Yposition Zposition Zrotation Xrotation Yrotation
                      JOINT LeftHandRing1
                      {
                        OFFSET 0 -7.74998 -0.199968
                        CHANNELS 6 Xposition Yposition Zposition Zrotation Xrotation Yrotation
                        JOINT LeftHandRing2
                        {
                          OFFSET 0 -3.85208 0
                          CHANNELS 6 Xposition Yposition Zposition Zrotation Xrotation Yrotation
                          JOINT LeftHandRing3
                          {
                            OFFSET 0 -3.39996 -1.6713e-05
                            CHANNELS 6 Xposition Yposition Zposition Zrotation Xrotation Yrotation
                            End Site
                            {
                              OFFSET -4.87424e-05 -2.60007 1.69863e-05
                            }
                          }
                        }
                      }
                    }
                    JOINT LeftHandPinky
                    {
                      OFFSET -0.750018 -1.75001 -1.85
                      CHANNELS 6 Xposition Yposition Zposition Zrotation Xrotation Yrotation
                      JOINT LeftHandPinky1
                      {
                        OFFSET 0 -7.15002 -1.00001
                        CHANNELS 6 Xposition Yposition Zposition Zrotation Xrotation Yrotation
                        JOINT LeftHandPinky2
                        {
                          OFFSET 0 -3.00869 1.71997e-05
                          CHANNELS 6 Xposition Yposition Zposition Zrotation Xrotation Yrotation
                          JOINT LeftHandPinky3
                          {
                            OFFSET -1.49139e-05 -2.34999 -1.0843e-05
                            CHANNELS 6 Xposition Yposition Zposition Zrotation Xrotation Yrotation
                            End Site
                            {
                              OFFSET 1.5204e-05 -2.10004 0
                            }
                          }
                        }
                      }
                    }
                  }
                }
              }
            }
          }
          JOINT RightShoulder
          {
            OFFSET -5.00008 17 0.000236837
            CHANNELS 6 Xposition Yposition Zposition Zrotation Xrotation Yrotation
            JOINT RightShoulder2
            {
              OFFSET -6.45 0 0
              CHANNELS 6 Xposition Yposition Zposition Zrotation Xrotation Yrotation
              JOINT RightArm
              {
                OFFSET -6.45002 -2.84829e-05 -1.45681e-05
                CHANNELS 6 Xposition Yposition Zposition Zrotation Xrotation Yrotation
                JOINT RightForeArm
                {
                  OFFSET -5.60661e-05 -32.4 -1.99999
                  CHANNELS 6 Xposition Yposition Zposition Zrotation Xrotation Yrotation
                  JOINT RightHand
                  {
                    OFFSET 5.60109e-05 -25.65 2
                    CHANNELS 6 Xposition Yposition Zposition Zrotation Xrotation Yrotation
                    JOINT RightHandThumb1
                    {
                      OFFSET 0.499976 -1.5 2.65001
                      CHANNELS 6 Xposition Yposition Zposition Zrotation Xrotation Yrotation
                      JOINT RightHandThumb2
                      {
                        OFFSET -2.17705e-05 -3.80005 3.70001
                        CHANNELS 6 Xposition Yposition Zposition Zrotation Xrotation Yrotation
                        JOINT RightHandThumb3
                        {
                          OFFSET 1.6995e-05 -3.00003 2.69997
                          CHANNELS 6 Xposition Yposition Zposition Zrotation Xrotation Yrotation
                          End Site
                          {
                            OFFSET -1.60067e-05 -2.3 1.8
                          }
                        }
                      }
                    }
                    JOINT RightHandIndex
                    {
                      OFFSET 7.11355e-05 -1.89997 1.6
                      CHANNELS 6 Xposition Yposition Zposition Zrotation Xrotation Yrotation
                      JOINT RightHandIndex1
                      {
                        OFFSET -8.318e-05 -8.30001 1.89996
                        CHANNELS 6 Xposition Yposition Zposition Zrotation Xrotation Yrotation
                        JOINT RightHandIndex2
                        {
                          OFFSET -2.8712e-05 -4.49998 3.95034e-05
                          CHANNELS 6 Xposition Yposition Zposition Zrotation Xrotation Yrotation
                          JOINT RightHandIndex3
                          {
                            OFFSET 4.38857e-05 -3.40001 0
                            CHANNELS 6 Xposition Yposition Zposition Zrotation Xrotation Yrotation
                            End Site
                            {
                              OFFSET -1.57098e-05 -2.6 1.73762e-05
                            }
                          }
                        }
                      }
                    }
                    JOINT RightHandMiddle
                    {
                      OFFSET 0.249982 -2.19999 0.400026
                      CHANNELS 6 Xposition Yposition Zposition Zrotation Xrotation Yrotation
                      JOINT RightHandMiddle1
                      {
                        OFFSET 0 -8.29995 1.00001
                        CHANNELS 6 Xposition Yposition Zposition Zrotation Xrotation Yrotation
                        JOINT RightHandMiddle2
                        {
                          OFFSET 0 -4.65001 -4.65061e-05
                          CHANNELS 6 Xposition Yposition Zposition Zrotation Xrotation Yrotation
                          JOINT RightHandMiddle3
                          {
                            OFFSET 4.95039e-05 -3.30002 0
                            CHANNELS 6 Xposition Yposition Zposition Zrotation Xrotation Yrotation
                            End Site
                            {
                              OFFSET -5.65843e-05 -2.69995 8.31902e-05
                            }
                          }
                        }
                      }
                    }
                    JOINT RightHandRing
                    {
                      OFFSET 0.5 -2.15002 -0.800005
                      CHANNELS 6 Xposition Yposition Zposition Zrotation Xrotation Yrotation
                      JOINT RightHandRing1
                      {
                        OFFSET 1.68627e-05 -7.75001 -0.20003
                        CHANNELS 6 Xposition Yposition Zposition Zrotation Xrotation Yrotation
                        JOINT RightHandRing2
                        {
                          OFFSET 0 -3.79999 1.11475e-05
                          CHANNELS 6 Xposition Yposition Zposition Zrotation Xrotation Yrotation
                          JOINT RightHandRing3
                          {
                            OFFSET -3.61555e-05 -3.39995 0
                            CHANNELS 6 Xposition Yposition Zposition Zrotation Xrotation Yrotation
                            End Site
                            {
                              OFFSET -2.81155e-05 -2.60003 0
                            }
                          }
                        }
                      }
                    }
                    JOINT RightHandPinky
                    {
                      OFFSET 0.750036 -1.74995 -1.84996
                      CHANNELS 6 Xposition Yposition Zposition Zrotation Xrotation Yrotation
                      JOINT RightHandPinky1
                      {
                        OFFSET -5.59957e-05 -7.15 -0.999991
                        CHANNELS 6 Xposition Yposition Zposition Zrotation Xrotation Yrotation
                        JOINT RightHandPinky2
                        {
                          OFFSET 0 -2.99999 2.12737e-05
                          CHANNELS 6 Xposition Yposition Zposition Zrotation Xrotation Yrotation
                          JOINT RightHandPinky3
                          {
                            OFFSET -2.62155e-05 -2.35002 0
                            CHANNELS 6 Xposition Yposition Zposition Zrotation Xrotation Yrotation
                            End Site
                            {
                              OFFSET 1.85028e-05 -2.09996 1.79493e-05
                            }
                          }
                        }
                      }
                    }
                  }
                }
              }
            }
          }
        }
      }
    }
  }
  JOINT LeftUpLeg
  {
    OFFSET 7.99999 0 -1.77065e-05
    CHANNELS 6 Xposition Yposition Zposition Zrotation Xrotation Yrotation
    JOINT LeftLeg
    {
      OFFSET -1.39184e-05 -45 -0.999998
      CHANNELS 6 Xposition Yposition Zposition Zrotation Xrotation Yrotation
      JOINT LeftFoot
      {
        OFFSET 1.09729e-05 -41 -2.00003
        CHANNELS 6 Xposition Yposition Zposition Zrotation Xrotation Yrotation
        JOINT LeftToeBase
        {
          OFFSET 1.17379e-05 -7.5 12.5
          CHANNELS 6 Xposition Yposition Zposition Zrotation Xrotation Yrotation
          JOINT LeftFootToe
          {
            OFFSET 0 0 4
            CHANNELS 6 Xposition Yposition Zposition Zrotation Xrotation Yrotation
            End Site
            {
              OFFSET 0 0 0
            }
          }
        }
      }
    }
  }
  JOINT RightUpLeg
  {
    OFFSET -7.99999 0 1.77065e-05
    CHANNELS 6 Xposition Yposition Zposition Zrotation Xrotation Yrotation
    JOINT RightLeg
    {
      OFFSET -1.0531e-05 -45 -0.999996
      CHANNELS 6 Xposition Yposition Zposition Zrotation Xrotation Yrotation
      JOINT RightFoot
      {
        OFFSET 0 -41.0001 -2.00008
        CHANNELS 6 Xposition Yposition Zposition Zrotation Xrotation Yrotation
        JOINT RightToeBase
        {
          OFFSET 1.1432e-05 -7.50001 12.4999
          CHANNELS 6 Xposition Yposition Zposition Zrotation Xrotation Yrotation
          JOINT RightFootToe
          {
            OFFSET 0 0 4
            CHANNELS 6 Xposition Yposition Zposition Zrotation Xrotation Yrotation
            End Site
            {
              OFFSET 0 0 0
            }
          }
        }
      }
    }
  }
}
MOTION
Frames:	2
Frame Time:	0.0111111
-290.047 74.2853 721.33 -5.2134 4.90772 -171.907 -1.54449e-05 8 3.39104e-06 16.2018 14.5344 -17.3905 3.05323e-06 8 -2.13291e-05 2.76483 9.84418 0.449198 7.34485e-06 8 3.403e-05 1.38697 4.92933 0.294939 0 8 0 1.3812 4.90942 0.2887 -0.000172248 17 -0.00025595 -2.29266 -7.42492 -1.94101 3.49616e-05 10.8 1.10897e-05 -5.91053 -17.2655 -5.12518 4.9998 17 -0.000193509 -8.48041 -3.27438 4.54297 6.45 -5.68434e-14 0 -2.19865 -0.0962209 1.28971 6.45002 0.000119746 0.000350531 38.3723 -51.2667 -4.92187 -4.90135e-06 -32.4 -1.99695 0.804902 -43.1002 -5.50175 -1.03261e-05 -25.65 2 32.0097 -3.08461 -12.8282 -0.499992 -1.49998 2.64999 22.4158 -21.8186 20.1094 -4.13717e-07 -3.79998 3.70004 -0.0753555 50.9187 0.0251762 3.5402e-07 -3.00004 2.69995 0.0105218 17.0412 -0.0161602 1.35361e-05 -1.90009 1.59998 1.60672e-06 1.73417e-06 1.85957e-06 6.88047e-06 -8.29995 1.9 -0.763641 7.42399 0.0625698 -2.07565e-06 -4.49996 -5.41051e-06 0.00640177 0.00735012 -0.0334785 -4.28726e-05 -3.4239 2.15166e-05 0.00646022 0.0066047 -0.0415193 -0.249993 -2.2 0.4 1.60672e-06 1.73417e-06 1.85957e-06 -1.49941e-05 -8.29998 0.999993 -0.598853 5.17436 0.0457421 -2.49051e-09 -4.64997 1.1277e-06 -0.000134719 -0.0684028 -0.0977648 -2.56664e-05 -3.30004 1.15377e-05 -0.000113638 0.308811 0.00967166 -0.500014 -2.15006 -0.800018 1.60672e-06 1.73417e-06 1.85957e-06 -8.50461e-06 -7.75001 -0.199999 -0.199018 1.63519 0.0284701 1.00437e-05 -3.84935 9.02652e-07 -1.35915 -0.0936845 -0.064988 -1.27827e-05 -3.40003 1.35011e-05 0.000354973 -0.0916372 0.217338 -0.75002 -1.75003 -1.85001 1.60672e-06 1.73417e-06 1.85957e-06 -1.75934e-05 -7.15 -0.999996 -0.00884298 -0.174386 0.0322166 1.19021e-05 -3.00609 8.6701e-07 -9.44456 -0.00615109 0.031978 -1.80488e-05 -2.35002 5.30195e-06 8.15377e-05 -0.000939818 0.0305182 -5.0002 16.9999 -0.000337222 -1.85578 -6.56694 2.72397 -6.45 0 0 -2.24141 1.08567 -3.40525 -6.44999 0.000195905 -0.000384437 -1.46689 -40.0784 14.4361 -7.16054e-05 -32.4 -1.99994 -34.6602 -57.8747 -64.3094 5.84589e-05 -25.65 1.99999 -23.4313 12.0987 -21.4941 0.499998 -1.50004 2.65002 130.169 -31.138 154.726 -5.89644e-05 -3.80006 3.70003 0.275633 42.6774 0.0809526 -8.6633e-06 -3 2.69999 -1.71805 62.354 1.32837 6.03382e-05 -1.89997 1.6 2.46938e-06 1.63908e-06 -1.69459e-06 -6.11137e-05 -8.30001 1.89996 0.0178892 -1.01356 -0.0425873 -3.22397e-05 -4.49998 4.85188e-05 0.00181137 -0.44466 0.176671 4.50079e-05 -3.39999 -1.6755e-05 0.00211574 -0.355059 0.473474 0.249969 -2.19998 0.400045 2.46938e-06 1.63908e-06 -1.69459e-06 2.38203e-05 -8.29996 0.999989 5.80325 3.74953 -0.378313 -1.20684e-05 -4.65003 -2.47509e-05 3.40322 -0.491316 0.407238 3.49888e-05 -3.29996 -1.01941e-05 0.0041033 -0.5005 0.417406 0.499994 -2.15003 -0.799997 2.46938e-06 1.63908e-06 -1.69459e-06 3.32831e-05 -7.75001 -0.200036 10.7566 3.98602 -0.639157 4.06856e-06 -3.8 1.66202e-05 1.5291 -0.0269994 0.410079 -2.5278e-05 -3.39995 -9.48401e-06 1.49449 -0.654545 0.343313 0.750031 -1.74996 -1.84996 2.46938e-06 1.63908e-06 -1.69459e-06 -3.73632e-05 -7.15 -0.999996 14.5875 6.02217 -1.14806 -5.09541e-06 -2.99998 2.36568e-05 0.00365709 0.404424 -0.273103 -1.51668e-05 -2.35003 -1.12032e-05 0.00385068 0.40202 -0.774048 8.00001 7.23545e-08 -1.02509e-05 20.8443 -47.1945 38.2295 6.78584e-06 -45 -1.00005 -0.222067 43.3227 -13.8059 4.7885e-06 -41 -2.00001 3.29177 14.1855 5.65581 -1.91192e-05 -7.5 12.5 -1.80517e-07 -2.94939e-06 -3.30391e-06 -1.13687e-13 0 4 0.198248 -11.2401 37.59 -8.00001 -7.23545e-08 1.02509e-05 -14.2884 -56.014 -11.2306 8.32895e-06 -45 -1.00001 -6.97791 65.7766 3.55289 -5.4844e-06 -41 -2.00006 2.02015 13.6225 8.08975 2.94971e-05 -7.5 12.5 4.69153e-05 -16.9089 0.00154673 5.68434e-14 0 4 8.34849 17.3492 8.79868 
-290.054 74.2891 721.328 -5.19034 4.86057 -171.897 -1.54449e-05 8 3.39104e-06 16.241 14.5658 -17.3787 3.05323e-06 8 -2.13291e-05 2.76028 9.86332 0.450656 7.34485e-06 8 3.403e-05 1.38547 4.93895 0.294939 5.68434e-14 8 0 1.37988 4.91909 0.288797 -0.000172248 17 -0.00025595 -2.33736 -7.45447 -1.95771 3.49616e-05 10.8 1.10897e-05 -6.0235 -17.3307 -5.17748 4.9998 17 -0.000193509 -8.50001 -3.31913 4.68237 6.45 0 0 -2.23061 -0.126367 1.2367 6.45002 0.000119746 0.000350531 38.0003 -51.6925 -5.36117 -4.90135e-06 -32.4 -1.99695 1.18568 -42.6679 -5.28088 -1.03261e-05 -25.65 2 32.0798 -3.32661 -12.9357 -0.499992 -1.49998 2.64999 22.3384 -21.8661 20.1322 -4.13717e-07 -3.79998 3.70004 -0.0703289 50.9056 0.0213286 3.5402e-07 -3.00004 2.69995 0.00870215 17.2472 -0.0149039 1.35361e-05 -1.90009 1.59998 1.60672e-06 1.73417e-06 1.85957e-06 6.88047e-06 -8.29995 1.9 -0.770464 7.45678 0.0628143 -2.07565e-06 -4.49996 -5.41051e-06 -0.00231044 0.00496905 -0.031844 -4.28726e-05 -3.4239 2.15166e-05 -0.00221096 0.00440608 -0.0396309 -0.249993 -2.2 0.4 1.60672e-06 1.73417e-06 1.85957e-06 -1.49941e-05 -8.29998 0.999993 -0.603244 5.16186 0.0452436 -2.49048e-09 -4.64997 1.1277e-06 -0.000135523 -0.0691097 -0.0976852 -2.56664e-05 -3.30004 1.15377e-05 -0.000113305 0.307559 0.00958032 -0.500014 -2.15006 -0.800018 1.60672e-06 1.73417e-06 1.85957e-06 -8.50461e-06 -7.75001 -0.199999 -0.203294 1.51379 0.0283989 1.00437e-05 -3.84935 9.02652e-07 -1.35915 -0.0945769 -0.0636645 -1.27827e-05 -3.40003 1.35011e-05 0.000358678 -0.0925453 0.217283 -0.75002 -1.75003 -1.85001 1.60672e-06 1.73417e-06 1.85957e-06 -1.75934e-05 -7.15 -0.999996 -0.00925491 -0.353379 0.0326546 1.19021e-05 -3.00609 8.67009e-07 -9.44519 -0.0076441 0.0325621 -1.80488e-05 -2.35002 5.30195e-06 8.22784e-05 -0.00230765 0.0312821 -5.0002 16.9999 -0.000337222 -1.94249 -6.49324 2.63993 -6.45 0 1.13687e-13 -2.24181 1.08667 -3.40721 -6.44999 0.000195905 -0.000384437 -1.22675 -40.2794 14.6252 -7.16054e-05 -32.4 -1.99994 -34.767 -57.8607 -64.5273 5.84589e-05 -25.65 1.99999 -23.4423 12.104 -21.5749 0.499998 -1.50004 2.65002 130.127 -30.8311 154.691 -5.89644e-05 -3.80006 3.70003 0.275357 42.817 0.081282 -8.6633e-06 -3 2.69999 -1.71851 62.354 1.32795 6.03382e-05 -1.89997 1.6 2.46938e-06 1.63908e-06 -1.69459e-06 -6.11137e-05 -8.30001 1.89996 0.0181389 -1.0138 -0.0428707 -3.22397e-05 -4.49998 4.85188e-05 0.00181787 -0.444676 0.177502 4.50079e-05 -3.39999 -1.6755e-05 0.00211631 -0.35502 0.473618 0.249969 -2.19998 0.400045 2.46938e-06 1.63908e-06 -1.69459e-06 2.38203e-05 -8.29996 0.999989 5.88998 3.7741 -0.385641 -1.20684e-05 -4.65003 -2.47509e-05 3.40322 -0.489922 0.408385 3.49888e-05 -3.29996 -1.01941e-05 0.00410361 -0.499207 0.418523 0.499994 -2.15003 -0.799997 2.46938e-06 1.63908e-06 -1.69459e-06 3.32831e-05 -7.75001 -0.200036 10.9539 3.97451 -0.651658 4.06855e-06 -3.8 1.66202e-05 1.38609 -0.0265618 0.410497 -2.5278e-05 -3.39995 -9.48401e-06 1.35806 -0.653477 0.343483 0.750031 -1.74996 -1.84996 2.46938e-06 1.63908e-06 -1.69459e-06 -3.73632e-05 -7.15 -0.999996 14.8477 6.00211 -1.1689 -5.09541e-06 -2.99998 2.36568e-05 0.00366319 0.405033 -0.273556 -1.51668e-05 -2.35003 -1.12032e-05 0.00385363 0.402639 -0.773279 8.00001 7.23544e-08 -1.02509e-05 20.8595 -47.2508 38.2221 6.78584e-06 -45 -1.00005 -0.221515 43.3439 -13.8069 4.7885e-06 -41 -2.00001 3.28984 14.1696 5.67632 -1.91192e-05 -7.5 12.5 -1.80517e-07 -2.94939e-06 -3.30391e-06 0 0 4 0.208769 -11.2326 37.5926 -8.00001 -7.23545e-08 1.02509e-05 -14.3164 -56.0471 -11.2914 8.32895e-06 -45 -1.00001 -6.98199 65.7658 3.56265 -5.4844e-06 -41 -2.00006 2.01725 13.6226 8.09125 2.94971e-05 -7.5 12.5 4.77608e-05 -16.9388 0.00154697 0 -1.77636e-15 4 8.34829 17.3553 8.79735 
